<?xml version="1.0" standalone="no"?>
<!DOCTYPE svg PUBLIC "-//W3C//DTD SVG 1.1//EN"
 "http://www.w3.org/Graphics/SVG/1.1/DTD/svg11.dtd">
<!-- Created with svg_stack (http://github.com/astraw/svg_stack) -->
<svg xmlns:sodipodi="http://sodipodi.sourceforge.net/DTD/sodipodi-0.dtd" xmlns="http://www.w3.org/2000/svg" version="1.1" width="500.0" height="500.0">
  <defs/>
  <g id="id0:id0" transform="matrix(1.25,0,0,1.25,0.0,0.0)"><g transform="translate(0.000000,400.000000) scale(0.040000,-0.040000)" fill="#ffffff" stroke="none">
<path d="M0 5000 l0 -5000 5000 0 5000 0 0 5000 0 5000 -5000 0 -5000 0 0 -5000z m4271 2222 c21 -9 69 -46 138 -106 117 -104 223 -224 319 -364 46 -66 51 -71 58 -50 13 42 86 142 150 205 60 59 180 146 234 169 14 6 57 25 95 43 39 17 99 38 135 47 36 8 81 20 100 25 61 18 222 38 305 38 96 1 159 -24 221 -86 86 -88 93 -107 124 -344 12 -93 -9 -268 -46 -376 -22 -65 -83 -190 -101 -209 -8 -8 -14 -16 -12 -18 2 -1 44 -21 92 -44 131 -63 278 -165 374 -261 87 -88 166 -184 185 -227 6 -13 14 -24 18 -24 9 0 105 -194 134 -272 24 -64 38 -124 66 -283 28 -159 -5 -494 -69 -714 -10 -36 -27 -93 -36 -126 -9 -33 -23 -73 -30 -90 -7 -16 -19 -48 -26 -70 -6 -22 -24 -67 -39 -100 -14 -33 -33 -76 -40 -95 -8 -19 -20 -46 -27 -60 l-13 -25 61 -7 c88 -10 132 -35 143 -79 13 -51 -19 -101 -91 -141 -61 -35 -58 -41 22 -52 104 -15 292 -67 364 -101 255 -121 207 -258 -149 -436 -153 -76 -393 -163 -560 -203 -36 -8 -103 -25 -150 -36 -315 -76 -789 -95 -1208 -49 -89 10 -141 10 -250 0 -380 -34 -760 -32 -967 4 -296 52 -549 173 -646 310 -90 127 -52 234 113 320 37 20 68 39 68 43 0 3 -18 32 -40 63 -22 32 -40 62 -40 67 0 5 -7 15 -15 22 -16 14 -60 91 -139 245 -179 351 -290 749 -303 1081 -13 341 93 665 300 914 135 163 284 282 462 369 181 90 331 128 528 137 159 7 273 -4 447 -46 110 -25 113 -25 105 1 -25 83 -185 356 -266 453 -56 68 -177 189 -222 223 -26 19 -59 52 -72 71 -70 103 10 253 134 251 25 0 53 -3 62 -7z"/>
</g>
</g>
  <g id="id1:id1" transform="matrix(1.25,0,0,1.25,0.0,0.0)"><g transform="translate(0.000000,400.000000) scale(0.040000,-0.040000)" fill="#f0eceb" stroke="none">
<path d="M4168 7223 c7 -3 16 -2 19 1 4 3 -2 6 -13 5 -11 0 -14 -3 -6 -6z"/>
<path d="M4238 7223 c7 -3 16 -2 19 1 4 3 -2 6 -13 5 -11 0 -14 -3 -6 -6z"/>
<path d="M5710 7224 c32 -7 211 -10 194 -3 -11 4 -62 7 -114 7 -52 0 -88 -2 -80 -4z"/>
<path d="M4270 7216 c0 -2 7 -7 16 -10 8 -3 12 -2 9 4 -6 10 -25 14 -25 6z"/>
<path d="M5638 7213 c6 -2 18 -2 25 0 6 3 1 5 -13 5 -14 0 -19 -2 -12 -5z"/>
<path d="M4094 7178 l-29 -33 33 29 c17 17 32 31 32 33 0 8 -8 1 -36 -29z"/>
<path d="M5530 7200 c-11 -7 -5 -8 20 -4 43 8 51 14 19 14 -13 0 -31 -5 -39 -10z"/>
<path d="M5478 7183 c7 -3 16 -2 19 1 4 3 -2 6 -13 5 -11 0 -14 -3 -6 -6z"/>
<path d="M5970 7186 c0 -2 8 -10 18 -17 15 -13 16 -12 3 4 -13 16 -21 21 -21 13z"/>
<path d="M5408 7163 c6 -2 18 -2 25 0 6 3 1 5 -13 5 -14 0 -19 -2 -12 -5z"/>
<path d="M4360 7157 c0 -2 15 -16 33 -33 l32 -29 -29 33 c-28 30 -36 37 -36 29z"/>
<path d="M5368 7153 c7 -3 16 -2 19 1 4 3 -2 6 -13 5 -11 0 -14 -3 -6 -6z"/>
<path d="M6030 7135 c13 -14 26 -25 28 -25 3 0 -5 11 -18 25 -13 14 -26 25 -28 25 -3 0 5 -11 18 -25z"/>
<path d="M5310 7140 c-18 -12 -2 -12 25 0 13 6 15 9 5 9 -8 0 -22 -4 -30 -9z"/>
<path d="M4051 7104 c0 -11 3 -14 6 -6 3 7 2 16 -1 19 -3 4 -6 -2 -5 -13z"/>
<path d="M5176 7081 c-4 -5 3 -7 14 -4 23 6 26 13 6 13 -8 0 -17 -4 -20 -9z"/>
<path d="M6080 7071 c0 -6 4 -13 10 -16 6 -3 7 1 4 9 -7 18 -14 21 -14 7z"/>
<path d="M5112 7046 c-44 -31 -55 -45 -17 -21 52 32 70 45 60 45 -6 -1 -25 -11 -43 -24z"/>
<path d="M4051 7029 c-1 -8 6 -24 15 -35 15 -19 15 -19 6 1 -5 11 -12 27 -15 35 -5 13 -6 13 -6 -1z"/>
<path d="M4510 7016 c0 -2 8 -10 18 -17 15 -13 16 -12 3 4 -13 16 -21 21 -21 13z"/>
<path d="M6111 6994 c0 -11 3 -14 6 -6 3 7 2 16 -1 19 -3 4 -6 -2 -5 -13z"/>
<path d="M4999 6963 l-24 -28 28 24 c25 23 32 31 24 31 -2 0 -14 -12 -28 -27z"/>
<path d="M4570 6945 c19 -19 36 -35 39 -35 3 0 -10 16 -29 35 -19 19 -36 35 -39 35 -3 0 10 -16 29 -35z"/>
<path d="M4100 6945 c13 -14 26 -25 28 -25 3 0 -5 11 -18 25 -13 14 -26 25 -28 25 -3 0 5 -11 18 -25z"/>
<path d="M6122 6945 c0 -16 2 -22 5 -12 2 9 2 23 0 30 -3 6 -5 -1 -5 -18z"/>
<path d="M4925 6898 l-40 -43 43 40 c23 21 42 40 42 42 0 8 -9 0 -45 -39z"/>
<path d="M4140 6916 c0 -2 8 -10 18 -17 15 -13 16 -12 3 4 -13 16 -21 21 -21 13z"/>
<path d="M4625 6880 c10 -11 20 -20 23 -20 3 0 -3 9 -13 20 -10 11 -20 20 -23 20 -3 0 3 -9 13 -20z"/>
<path d="M6142 6830 c0 -19 2 -27 5 -17 2 9 2 25 0 35 -3 9 -5 1 -5 -18z"/>
<path d="M4650 6846 c0 -2 8 -10 18 -17 15 -13 16 -12 3 4 -13 16 -21 21 -21 13z"/>
<path d="M4230 6837 c0 -2 15 -16 33 -33 l32 -29 -29 33 c-28 30 -36 37 -36 29z"/>
<path d="M4859 6823 c-13 -16 -12 -17 4 -4 16 13 21 21 13 21 -2 0 -10 -8 -17 -17z"/>
<path d="M4680 6806 c0 -2 8 -10 18 -17 15 -13 16 -12 3 4 -13 16 -21 21 -21 13z"/>
<path d="M6153 6725 c0 -22 2 -30 4 -17 2 12 2 30 0 40 -3 9 -5 -1 -4 -23z"/>
<path d="M4795 6729 c-4 -6 -5 -12 -2 -15 2 -3 7 2 10 11 7 17 1 20 -8 4z"/>
<path d="M4760 6692 c11 -22 31 -22 29 1 0 8 -2 8 -6 -1 -4 -10 -9 -9 -20 5 -13 17 -13 16 -3 -5z"/>
<path d="M6142 6625 c0 -16 2 -22 5 -12 2 9 2 23 0 30 -3 6 -5 -1 -5 -18z"/>
<path d="M4430 6596 c0 -2 8 -10 18 -17 15 -13 16 -12 3 4 -13 16 -21 21 -21 13z"/>
<path d="M6122 6525 c0 -16 2 -22 5 -12 2 9 2 23 0 30 -3 6 -5 -1 -5 -18z"/>
<path d="M6101 6434 c0 -11 3 -14 6 -6 3 7 2 16 -1 19 -3 4 -6 -2 -5 -13z"/>
<path d="M6065 6349 c-4 -6 -5 -12 -2 -15 2 -3 7 2 10 11 7 17 1 20 -8 4z"/>
<path d="M6031 6273 c-10 -26 -10 -27 4 -9 8 11 15 23 15 28 0 15 -7 8 -19 -19z"/>
<path d="M4048 6273 c6 -2 18 -2 25 0 6 3 1 5 -13 5 -14 0 -19 -2 -12 -5z"/>
<path d="M4238 6273 c6 -2 18 -2 25 0 6 3 1 5 -13 5 -14 0 -19 -2 -12 -5z"/>
<path d="M3943 6263 c9 -2 23 -2 30 0 6 3 -1 5 -18 5 -16 0 -22 -2 -12 -5z"/>
<path d="M4343 6263 c9 -2 23 -2 30 0 6 3 -1 5 -18 5 -16 0 -22 -2 -12 -5z"/>
<path d="M3898 6253 c7 -3 16 -2 19 1 4 3 -2 6 -13 5 -11 0 -14 -3 -6 -6z"/>
<path d="M3848 6243 c7 -3 16 -2 19 1 4 3 -2 6 -13 5 -11 0 -14 -3 -6 -6z"/>
<path d="M4441 6246 c2 -2 18 -6 34 -10 22 -5 26 -4 15 4 -14 9 -59 15 -49 6z"/>
<path d="M6005 6229 c-4 -6 -5 -12 -2 -15 2 -3 7 2 10 11 7 17 1 20 -8 4z"/>
<path d="M3768 6223 c7 -3 16 -2 19 1 4 3 -2 6 -13 5 -11 0 -14 -3 -6 -6z"/>
<path d="M4540 6220 c34 -11 60 -11 35 0 -11 5 -29 8 -40 8 -16 0 -15 -2 5 -8z"/>
<path d="M4625 6210 c-19 -8 -19 -9 3 -9 12 -1 22 4 22 9 0 6 -1 10 -2 9 -2 0 -12 -4 -23 -9z"/>
<path d="M5985 6190 c3 -4 14 -10 25 -13 11 -3 18 -2 15 3 -3 4 -14 10 -25 13 -11 3 -18 2 -15 -3z"/>
<path d="M3595 6160 c-3 -6 1 -7 9 -4 18 7 21 14 7 14 -6 0 -13 -4 -16 -10z"/>
<path d="M6050 6160 c8 -5 20 -10 25 -10 6 0 3 5 -5 10 -8 5 -19 10 -25 10 -5 0 -3 -5 5 -10z"/>
<path d="M3479 6099 l-24 -20 28 17 c15 9 27 18 27 20 0 8 -8 4 -31 -17z"/>
<path d="M6174 6101 c7 -11 46 -35 46 -28 0 3 -12 12 -26 22 -15 9 -23 12 -20 6z"/>
<path d="M3349 6013 c-13 -16 -12 -17 4 -4 16 13 21 21 13 21 -2 0 -10 -8 -17 -17z"/>
<path d="M3282 5963 l-38 -38 36 30 c19 16 39 33 45 37 5 5 6 8 2 8 -4 0 -25 -17 -45 -37z"/>
<path d="M6350 5987 c0 -2 15 -16 33 -33 l32 -29 -29 33 c-28 30 -36 37 -36 29z"/>
<path d="M6445 5900 c10 -11 20 -20 23 -20 3 0 -3 9 -13 20 -10 11 -20 20 -23 20 -3 0 3 -9 13 -20z"/>
<path d="M3179 5863 c-13 -16 -12 -17 4 -4 16 13 21 21 13 21 -2 0 -10 -8 -17 -17z"/>
<path d="M3119 5803 c-13 -16 -12 -17 4 -4 16 13 21 21 13 21 -2 0 -10 -8 -17 -17z"/>
<path d="M6545 5790 c10 -11 20 -20 23 -20 3 0 -3 9 -13 20 -10 11 -20 20 -23 20 -3 0 3 -9 13 -20z"/>
<path d="M3069 5743 c-13 -16 -12 -17 4 -4 9 7 17 15 17 17 0 8 -8 3 -21 -13z"/>
<path d="M6615 5696 c10 -14 19 -26 22 -26 7 0 -17 39 -28 46 -6 3 -3 -5 6 -20z"/>
<path d="M3019 5673 c-13 -16 -12 -17 4 -4 16 13 21 21 13 21 -2 0 -10 -8 -17 -17z"/>
<path d="M2990 5630 c-6 -11 -8 -20 -6 -20 3 0 10 9 16 20 6 11 8 20 6 20 -3 0 -10 -9 -16 -20z"/>
<path d="M6676 5607 c3 -10 9 -15 12 -12 3 3 0 11 -7 18 -10 9 -11 8 -5 -6z"/>
<path d="M6751 5465 c1 -19 18 -51 18 -35 0 8 -4 22 -9 30 -5 8 -9 11 -9 5z"/>
<path d="M6821 5264 c0 -11 3 -14 6 -6 3 7 2 16 -1 19 -3 4 -6 -2 -5 -13z"/>
<path d="M6831 5204 c0 -11 3 -14 6 -6 3 7 2 16 -1 19 -3 4 -6 -2 -5 -13z"/>
<path d="M2812 5160 c0 -14 2 -19 5 -12 2 6 2 18 0 25 -3 6 -5 1 -5 -13z"/>
<path d="M6842 5155 c0 -16 2 -22 5 -12 2 9 2 23 0 30 -3 6 -5 -1 -5 -18z"/>
<path d="M2802 5095 c0 -16 2 -22 5 -12 2 9 2 23 0 30 -3 6 -5 -1 -5 -18z"/>
<path d="M6863 5010 c0 -30 2 -43 4 -27 2 15 2 39 0 55 -2 15 -4 2 -4 -28z"/>
<path d="M2794 4910 c0 -80 2 -112 3 -72 2 39 2 105 0 145 -1 39 -3 7 -3 -73z"/>
<path d="M6863 4810 c0 -30 2 -43 4 -27 2 15 2 39 0 55 -2 15 -4 2 -4 -28z"/>
<path d="M2802 4715 c0 -16 2 -22 5 -12 2 9 2 23 0 30 -3 6 -5 -1 -5 -18z"/>
<path d="M6851 4724 c0 -11 3 -14 6 -6 3 7 2 16 -1 19 -3 4 -6 -2 -5 -13z"/>
<path d="M6842 4650 c0 -19 2 -27 5 -17 2 9 2 25 0 35 -3 9 -5 1 -5 -18z"/>
<path d="M2812 4645 c0 -16 2 -22 5 -12 2 9 2 23 0 30 -3 6 -5 -1 -5 -18z"/>
<path d="M2821 4584 c0 -11 3 -14 6 -6 3 7 2 16 -1 19 -3 4 -6 -2 -5 -13z"/>
<path d="M6832 4580 c0 -14 2 -19 5 -12 2 6 2 18 0 25 -3 6 -5 1 -5 -13z"/>
<path d="M2831 4524 c0 -11 3 -14 6 -6 3 7 2 16 -1 19 -3 4 -6 -2 -5 -13z"/>
<path d="M6822 4520 c0 -14 2 -19 5 -12 2 6 2 18 0 25 -3 6 -5 1 -5 -13z"/>
<path d="M6811 4474 c0 -11 3 -14 6 -6 3 7 2 16 -1 19 -3 4 -6 -2 -5 -13z"/>
<path d="M2851 4434 c0 -11 3 -14 6 -6 3 7 2 16 -1 19 -3 4 -6 -2 -5 -13z"/>
<path d="M6781 4364 c0 -11 3 -14 6 -6 3 7 2 16 -1 19 -3 4 -6 -2 -5 -13z"/>
<path d="M2891 4294 c0 -11 3 -14 6 -6 3 7 2 16 -1 19 -3 4 -6 -2 -5 -13z"/>
<path d="M6761 4284 c0 -11 3 -14 6 -6 3 7 2 16 -1 19 -3 4 -6 -2 -5 -13z"/>
<path d="M6716 4153 c-6 -14 -5 -15 5 -6 7 7 10 15 7 18 -3 3 -9 -2 -12 -12z"/>
<path d="M6701 4114 c0 -11 3 -14 6 -6 3 7 2 16 -1 19 -3 4 -6 -2 -5 -13z"/>
<path d="M2971 4060 c0 -8 4 -22 9 -30 12 -18 12 -2 0 25 -6 13 -9 15 -9 5z"/>
<path d="M6656 3993 c-6 -14 -5 -15 5 -6 7 7 10 15 7 18 -3 3 -9 -2 -12 -12z"/>
<path d="M3010 3951 c0 -6 4 -13 10 -16 6 -3 7 1 4 9 -7 18 -14 21 -14 7z"/>
<path d="M3030 3915 c0 -5 5 -17 10 -25 5 -8 10 -10 10 -5 0 6 -5 17 -10 25 -5 8 -10 11 -10 5z"/>
<path d="M3050 3865 c0 -5 5 -17 10 -25 5 -8 10 -10 10 -5 0 6 -5 17 -10 25 -5 8 -10 11 -10 5z"/>
<path d="M6596 3853 c-6 -14 -5 -15 5 -6 7 7 10 15 7 18 -3 3 -9 -2 -12 -12z"/>
<path d="M6576 3814 c-9 -24 -9 -24 32 -24 61 0 140 -28 158 -55 32 -49 -6 -110 -96 -155 -32 -16 -61 -34 -64 -39 -4 -5 15 -13 41 -16 107 -15 313 -65 389 -94 127 -49 200 -125 187 -194 -13 -69 -168 -183 -370 -272 -339 -149 -777 -253 -1154 -274 -178 -11 -515 1 -694 22 -91 12 -131 12 -235 1 -206 -22 -570 -33 -729 -23 -80 5 -195 18 -257 29 -376 67 -670 252 -667 421 1 81 36 121 166 189 63 34 66 37 52 56 -11 14 -14 15 -9 2 4 -12 -11 -25 -63 -52 -131 -69 -179 -141 -154 -234 45 -174 320 -333 686 -397 207 -36 587 -38 967 -4 109 10 161 10 250 0 419 -46 893 -27 1208 49 47 11 114 28 150 36 235 57 551 184 710 286 211 136 211 252 -1 353 -72 34 -260 86 -364 101 -80 11 -83 17 -22 52 72 40 104 90 91 141 -11 45 -58 71 -144 78 -44 4 -57 9 -53 19 3 8 3 14 0 14 -3 0 -8 -7 -11 -16z"/>
<path d="M3110 3746 c0 -11 30 -66 36 -66 2 0 -3 15 -12 33 -19 36 -24 44 -24 33z"/>
<path d="M3210 3561 c5 -11 15 -23 21 -27 6 -3 3 5 -6 20 -20 30 -30 35 -15 7z"/>
<path d="M3250 3501 c0 -6 4 -13 10 -16 6 -3 7 1 4 9 -7 18 -14 21 -14 7z"/>
<path d="M3290 3436 c0 -2 8 -10 18 -17 15 -13 16 -12 3 4 -13 16 -21 21 -21 13z"/>
</g>
</g>
  <g id="id2:id2" transform="matrix(1.25,0,0,1.25,0.0,0.0)"><g transform="translate(0.000000,400.000000) scale(0.040000,-0.040000)" fill="#ded5d1" stroke="none">
<path d="M4198 7223 c6 -2 18 -2 25 0 6 3 1 5 -13 5 -14 0 -19 -2 -12 -5z"/>
<path d="M5683 7213 c9 -2 25 -2 35 0 9 3 1 5 -18 5 -19 0 -27 -2 -17 -5z"/>
<path d="M5603 7203 c9 -2 25 -2 35 0 9 3 1 5 -18 5 -19 0 -27 -2 -17 -5z"/>
<path d="M4315 7180 c10 -11 20 -20 23 -20 3 0 -3 9 -13 20 -10 11 -20 20 -23 20 -3 0 3 -9 13 -20z"/>
<path d="M5548 7193 c6 -2 18 -2 25 0 6 3 1 5 -13 5 -14 0 -19 -2 -12 -5z"/>
<path d="M5960 7186 c0 -2 8 -10 18 -17 15 -13 16 -12 3 4 -13 16 -21 21 -21 13z"/>
<path d="M4070 7139 c-7 -11 -10 -23 -7 -25 2 -2 9 7 15 21 14 30 7 33 -8 4z"/>
<path d="M4350 7156 c0 -2 8 -10 18 -17 15 -13 16 -12 3 4 -13 16 -21 21 -21 13z"/>
<path d="M5358 7143 c7 -3 16 -2 19 1 4 3 -2 6 -13 5 -11 0 -14 -3 -6 -6z"/>
<path d="M6030 7126 c0 -2 8 -10 18 -17 15 -13 16 -12 3 4 -13 16 -21 21 -21 13z"/>
<path d="M4475 7040 c33 -33 62 -60 64 -60 3 0 -21 27 -54 60 -33 33 -62 60 -64 60 -3 0 21 -27 54 -60z"/>
<path d="M4052 7065 c0 -16 2 -22 5 -12 2 9 2 23 0 30 -3 6 -5 -1 -5 -18z"/>
<path d="M6086 7047 c3 -10 9 -15 12 -12 3 3 0 11 -7 18 -10 9 -11 8 -5 -6z"/>
<path d="M5024 6978 l-19 -23 23 19 c21 18 27 26 19 26 -2 0 -12 -10 -23 -22z"/>
<path d="M4080 6977 c0 -2 15 -16 33 -33 l32 -29 -29 33 c-28 30 -36 37 -36 29z"/>
<path d="M4580 6926 c0 -2 8 -10 18 -17 15 -13 16 -12 3 4 -13 16 -21 21 -21 13z"/>
<path d="M6122 6900 c0 -14 2 -19 5 -12 2 6 2 18 0 25 -3 6 -5 1 -5 -13z"/>
<path d="M4190 6875 c19 -19 36 -35 39 -35 3 0 -10 16 -29 35 -19 19 -36 35 -39 35 -3 0 10 -16 29 -35z"/>
<path d="M4904 6868 l-29 -33 33 29 c30 28 37 36 29 36 -2 0 -16 -15 -33 -32z"/>
<path d="M4680 6796 c0 -2 8 -10 18 -17 15 -13 16 -12 3 4 -13 16 -21 21 -21 13z"/>
<path d="M6142 6770 c0 -19 2 -27 5 -17 2 9 2 25 0 35 -3 9 -5 1 -5 -18z"/>
<path d="M4320 6745 c19 -19 36 -35 39 -35 3 0 -10 16 -29 35 -19 19 -36 35 -39 35 -3 0 10 -16 29 -35z"/>
<path d="M4375 6680 c10 -11 20 -20 23 -20 3 0 -3 9 -13 20 -10 11 -20 20 -23 20 -3 0 3 -9 13 -20z"/>
<path d="M6142 6675 c0 -16 2 -22 5 -12 2 9 2 23 0 30 -3 6 -5 -1 -5 -18z"/>
<path d="M4766 6668 c3 -5 10 -6 15 -3 13 9 11 12 -6 12 -8 0 -12 -4 -9 -9z"/>
<path d="M6121 6564 c0 -11 3 -14 6 -6 3 7 2 16 -1 19 -3 4 -6 -2 -5 -13z"/>
<path d="M6106 6489 c-3 -18 -4 -34 -2 -36 2 -3 7 10 11 27 4 17 5 34 2 36 -2 3 -7 -10 -11 -27z"/>
<path d="M6086 6415 c-9 -26 -7 -32 5 -12 6 10 9 21 6 23 -2 3 -7 -2 -11 -11z"/>
<path d="M6066 6363 c-6 -14 -5 -15 5 -6 7 7 10 15 7 18 -3 3 -9 -2 -12 -12z"/>
<path d="M6046 6325 c-9 -26 -7 -32 5 -12 6 10 9 21 6 23 -2 3 -7 -2 -11 -11z"/>
<path d="M6015 6260 c-9 -16 -13 -30 -11 -30 3 0 12 14 21 30 9 17 13 30 11 30 -3 0 -12 -13 -21 -30z"/>
<path d="M4118 6273 c23 -2 59 -2 80 0 20 2 1 4 -43 4 -44 0 -61 -2 -37 -4z"/>
<path d="M3998 6263 c12 -2 30 -2 40 0 9 3 -1 5 -23 4 -22 0 -30 -2 -17 -4z"/>
<path d="M4278 6263 c12 -2 30 -2 40 0 9 3 -1 5 -23 4 -22 0 -30 -2 -17 -4z"/>
<path d="M4418 6243 c7 -3 16 -2 19 1 4 3 -2 6 -13 5 -11 0 -14 -3 -6 -6z"/>
<path d="M3798 6223 c7 -3 16 -2 19 1 4 3 -2 6 -13 5 -11 0 -14 -3 -6 -6z"/>
<path d="M4498 6223 c7 -3 16 -2 19 1 4 3 -2 6 -13 5 -11 0 -14 -3 -6 -6z"/>
<path d="M4588 6203 c7 -3 16 -2 19 1 4 3 -2 6 -13 5 -11 0 -14 -3 -6 -6z"/>
<path d="M3540 6130 c-9 -6 -10 -10 -3 -10 6 0 15 5 18 10 8 12 4 12 -15 0z"/>
<path d="M6340 5986 c0 -2 8 -10 18 -17 15 -13 16 -12 3 4 -13 16 -21 21 -21 13z"/>
<path d="M3284 5958 l-19 -23 23 19 c21 18 27 26 19 26 -2 0 -12 -10 -23 -22z"/>
<path d="M6465 5870 c33 -33 62 -60 64 -60 3 0 -21 27 -54 60 -33 33 -62 60 -64 60 -3 0 21 -27 54 -60z"/>
<path d="M3214 5898 l-19 -23 23 19 c21 18 27 26 19 26 -2 0 -12 -10 -23 -22z"/>
<path d="M3149 5833 c-13 -16 -12 -17 4 -4 16 13 21 21 13 21 -2 0 -10 -8 -17 -17z"/>
<path d="M3104 5778 l-19 -23 23 19 c21 18 27 26 19 26 -2 0 -12 -10 -23 -22z"/>
<path d="M6540 5786 c0 -2 8 -10 18 -17 15 -13 16 -12 3 4 -13 16 -21 21 -21 13z"/>
<path d="M6640 5646 c0 -2 8 -10 18 -17 15 -13 16 -12 3 4 -13 16 -21 21 -21 13z"/>
<path d="M2926 5505 c-9 -26 -7 -32 5 -12 6 10 9 21 6 23 -2 3 -7 -2 -11 -11z"/>
<path d="M2831 5234 c0 -11 3 -14 6 -6 3 7 2 16 -1 19 -3 4 -6 -2 -5 -13z"/>
<path d="M6821 5234 c0 -11 3 -14 6 -6 3 7 2 16 -1 19 -3 4 -6 -2 -5 -13z"/>
<path d="M2811 5124 c0 -11 3 -14 6 -6 3 7 2 16 -1 19 -3 4 -6 -2 -5 -13z"/>
<path d="M6841 5114 c0 -11 3 -14 6 -6 3 7 2 16 -1 19 -3 4 -6 -2 -5 -13z"/>
<path d="M6851 5064 c0 -11 3 -14 6 -6 3 7 2 16 -1 19 -3 4 -6 -2 -5 -13z"/>
<path d="M2801 5054 c0 -11 3 -14 6 -6 3 7 2 16 -1 19 -3 4 -6 -2 -5 -13z"/>
<path d="M6863 4910 c0 -30 2 -43 4 -27 2 15 2 39 0 55 -2 15 -4 2 -4 -28z"/>
<path d="M2802 4760 c0 -14 2 -19 5 -12 2 6 2 18 0 25 -3 6 -5 1 -5 -13z"/>
<path d="M6852 4760 c0 -14 2 -19 5 -12 2 6 2 18 0 25 -3 6 -5 1 -5 -13z"/>
<path d="M6841 4694 c0 -11 3 -14 6 -6 3 7 2 16 -1 19 -3 4 -6 -2 -5 -13z"/>
<path d="M2811 4684 c0 -11 3 -14 6 -6 3 7 2 16 -1 19 -3 4 -6 -2 -5 -13z"/>
<path d="M6831 4614 c0 -11 3 -14 6 -6 3 7 2 16 -1 19 -3 4 -6 -2 -5 -13z"/>
<path d="M2832 4560 c0 -14 2 -19 5 -12 2 6 2 18 0 25 -3 6 -5 1 -5 -13z"/>
<path d="M6822 4560 c0 -14 2 -19 5 -12 2 6 2 18 0 25 -3 6 -5 1 -5 -13z"/>
<path d="M2841 4504 c0 -11 3 -14 6 -6 3 7 2 16 -1 19 -3 4 -6 -2 -5 -13z"/>
<path d="M6801 4454 c0 -11 3 -14 6 -6 3 7 2 16 -1 19 -3 4 -6 -2 -5 -13z"/>
<path d="M2861 4414 c0 -11 3 -14 6 -6 3 7 2 16 -1 19 -3 4 -6 -2 -5 -13z"/>
<path d="M2871 4374 c0 -11 3 -14 6 -6 3 7 2 16 -1 19 -3 4 -6 -2 -5 -13z"/>
<path d="M6761 4314 c0 -11 3 -14 6 -6 3 7 2 16 -1 19 -3 4 -6 -2 -5 -13z"/>
<path d="M6566 3788 c3 -4 22 -8 43 -8 20 0 61 -7 90 -16 40 -11 54 -21 62 -41 20 -54 -13 -94 -129 -152 -35 -18 -60 -35 -58 -40 3 -5 29 -11 58 -15 29 -4 88 -14 131 -22 43 -9 81 -14 83 -11 4 4 -112 28 -204 42 -23 4 -39 11 -36 16 3 5 32 23 64 39 118 60 144 149 53 186 -40 17 -164 34 -157 22z"/>
<path d="M6938 3454 c94 -28 195 -75 231 -107 89 -82 47 -166 -144 -285 -120 -74 -386 -179 -630 -247 -66 -19 -113 -34 -104 -34 23 -1 207 52 341 98 328 114 572 262 591 358 11 61 -50 135 -148 178 -62 28 -181 65 -204 64 -9 0 22 -11 67 -25z"/>
<path d="M3290 3446 c0 -2 8 -10 18 -17 15 -13 16 -12 3 4 -13 16 -21 21 -21 13z"/>
<path d="M3274 3327 c-103 -56 -155 -107 -153 -152 1 -13 4 -10 10 10 12 43 64 89 150 135 41 22 70 39 64 40 -5 0 -37 -15 -71 -33z"/>
<path d="M3116 3120 c15 -90 109 -188 252 -262 84 -44 221 -99 245 -98 7 1 -28 16 -78 34 -229 84 -363 185 -407 310 -14 39 -17 43 -12 16z"/>
<path d="M6210 2770 c-20 -6 -21 -8 -5 -8 11 0 31 4 45 8 20 6 21 8 5 8 -11 0 -31 -4 -45 -8z"/>
<path d="M3668 2745 c23 -8 64 -16 90 -19 32 -4 22 0 -33 14 -92 22 -120 24 -57 5z"/>
<path d="M6055 2739 c-67 -14 -76 -17 -35 -13 57 5 180 32 145 32 -11 -1 -60 -9 -110 -19z"/>
<path d="M4835 2730 c-38 -5 -27 -6 48 -7 54 0 97 0 95 2 -9 7 -100 10 -143 5z"/>
<path d="M3845 2710 c40 -9 112 -13 104 -6 -2 2 -35 6 -74 9 -54 4 -61 4 -30 -3z"/>
<path d="M4595 2709 c-49 -5 -214 -10 -365 -11 -203 -2 -247 -5 -170 -9 111 -7 549 7 660 20 61 8 62 8 15 8 -27 0 -90 -4 -140 -8z"/>
<path d="M5040 2710 c58 -8 166 -13 159 -6 -2 2 -51 6 -109 9 -74 4 -89 3 -50 -3z"/>
<path d="M5825 2708 c-33 -4 -186 -9 -340 -10 -266 -2 -272 -2 -120 -9 160 -7 456 4 550 20 48 8 49 9 10 9 -22 -1 -67 -5 -100 -10z"/>
</g>
</g>
  <g id="id3:id3" transform="matrix(1.25,0,0,1.25,0.0,0.0)"><g transform="translate(0.000000,400.000000) scale(0.040000,-0.040000)" fill="#e79f9e" stroke="none">
<path d="M4103 6263 c32 -2 81 -2 110 0 29 2 3 3 -58 3 -60 0 -84 -1 -52 -3z"/>
<path d="M3953 6253 c9 -2 23 -2 30 0 6 3 -1 5 -18 5 -16 0 -22 -2 -12 -5z"/>
<path d="M4333 6253 c9 -2 23 -2 30 0 6 3 -1 5 -18 5 -16 0 -22 -2 -12 -5z"/>
<path d="M3908 6243 c7 -3 16 -2 19 1 4 3 -2 6 -13 5 -11 0 -14 -3 -6 -6z"/>
<path d="M4388 6243 c7 -3 16 -2 19 1 4 3 -2 6 -13 5 -11 0 -14 -3 -6 -6z"/>
<path d="M4448 6233 c7 -3 16 -2 19 1 4 3 -2 6 -13 5 -11 0 -14 -3 -6 -6z"/>
<path d="M3778 6213 c7 -3 16 -2 19 1 4 3 -2 6 -13 5 -11 0 -14 -3 -6 -6z"/>
<path d="M4535 6210 c11 -5 27 -9 35 -9 9 0 8 4 -5 9 -11 5 -27 9 -35 9 -9 0 -8 -4 5 -9z"/>
<path d="M4608 6193 c6 -2 18 -2 25 0 6 3 1 5 -13 5 -14 0 -19 -2 -12 -5z"/>
<path d="M3640 6170 c-8 -5 -10 -10 -5 -10 6 0 17 5 25 10 8 5 11 10 5 10 -5 0 -17 -5 -25 -10z"/>
<path d="M6000 6170 c8 -5 20 -10 25 -10 6 0 3 5 -5 10 -8 5 -19 10 -25 10 -5 0 -3 -5 5 -10z"/>
<path d="M3555 6130 c-3 -6 1 -7 9 -4 18 7 21 14 7 14 -6 0 -13 -4 -16 -10z"/>
<path d="M6081 6136 c10 -9 89 -46 89 -41 0 5 -75 45 -86 45 -4 0 -5 -2 -3 -4z"/>
<path d="M3515 6110 c-3 -6 1 -7 9 -4 18 7 21 14 7 14 -6 0 -13 -4 -16 -10z"/>
<path d="M6180 6086 c0 -3 9 -10 20 -16 11 -6 20 -8 20 -6 0 3 -9 10 -20 16 -11 6 -20 8 -20 6z"/>
<path d="M3424 6054 c-18 -14 -18 -15 4 -4 12 6 22 13 22 15 0 8 -5 6 -26 -11z"/>
<path d="M3344 5998 l-19 -23 23 19 c21 18 27 26 19 26 -2 0 -12 -10 -23 -22z"/>
<path d="M6294 6012 c8 -13 66 -56 66 -49 0 3 -17 17 -37 33 -20 15 -33 23 -29 16z"/>
<path d="M3195 5868 l-70 -73 73 70 c39 38 72 71 72 72 0 8 -11 -2 -75 -69z"/>
<path d="M6390 5937 c0 -1 35 -36 78 -77 l77 -75 -75 78 c-69 71 -80 82 -80 74z"/>
<path d="M3099 5763 l-24 -28 28 24 c25 23 32 31 24 31 -2 0 -14 -12 -28 -27z"/>
<path d="M6555 5760 c10 -11 20 -20 23 -20 3 0 -3 9 -13 20 -10 11 -20 20 -23 20 -3 0 3 -9 13 -20z"/>
<path d="M6595 5706 c10 -14 19 -26 22 -26 7 0 -17 39 -28 46 -6 3 -3 -5 6 -20z"/>
<path d="M3039 5683 c-13 -16 -12 -17 4 -4 9 7 17 15 17 17 0 8 -8 3 -21 -13z"/>
<path d="M6666 5595 c14 -25 28 -45 30 -45 7 0 -35 78 -45 85 -6 3 2 -15 15 -40z"/>
<path d="M2980 5590 c-6 -11 -8 -20 -6 -20 3 0 10 9 16 20 6 11 8 20 6 20 -3 0 -10 -9 -16 -20z"/>
<path d="M2945 5529 c-4 -6 -5 -12 -2 -15 2 -3 7 2 10 11 7 17 1 20 -8 4z"/>
<path d="M6720 5505 c0 -5 5 -17 10 -25 5 -8 10 -10 10 -5 0 6 -5 17 -10 25 -5 8 -10 11 -10 5z"/>
<path d="M2906 5445 c-9 -26 -7 -32 5 -12 6 10 9 21 6 23 -2 3 -7 -2 -11 -11z"/>
<path d="M6740 5455 c0 -5 5 -17 10 -25 5 -8 10 -10 10 -5 0 6 -5 17 -10 25 -5 8 -10 11 -10 5z"/>
<path d="M2886 5393 c-6 -14 -5 -15 5 -6 7 7 10 15 7 18 -3 3 -9 -2 -12 -12z"/>
<path d="M6760 5405 c0 -5 5 -17 10 -25 5 -8 10 -10 10 -5 0 6 -5 17 -10 25 -5 8 -10 11 -10 5z"/>
<path d="M6780 5355 c0 -5 5 -17 10 -25 5 -8 10 -10 10 -5 0 6 -5 17 -10 25 -5 8 -10 11 -10 5z"/>
<path d="M2845 5270 c-4 -17 -5 -34 -2 -36 2 -3 7 10 11 27 8 42 0 50 -9 9z"/>
<path d="M6802 5290 c0 -8 4 -26 8 -40 6 -20 8 -21 8 -5 0 11 -3 29 -8 40 -5 12 -8 14 -8 5z"/>
<path d="M2826 5184 c-4 -20 -5 -38 -3 -40 3 -3 8 11 11 32 4 20 5 38 3 40 -3 3 -8 -11 -11 -32z"/>
<path d="M6822 5200 c0 -14 2 -19 5 -12 2 6 2 18 0 25 -3 6 -5 1 -5 -13z"/>
<path d="M6832 5150 c0 -14 2 -19 5 -12 2 6 2 18 0 25 -3 6 -5 1 -5 -13z"/>
<path d="M2812 5085 c0 -16 2 -22 5 -12 2 9 2 23 0 30 -3 6 -5 -1 -5 -18z"/>
<path d="M6842 5080 c0 -14 2 -19 5 -12 2 6 2 18 0 25 -3 6 -5 1 -5 -13z"/>
<path d="M6853 5010 c0 -25 2 -35 4 -22 2 12 2 32 0 45 -2 12 -4 2 -4 -23z"/>
<path d="M2804 4910 c0 -74 1 -105 3 -67 2 37 2 97 0 135 -2 37 -3 6 -3 -68z"/>
<path d="M6853 4820 c0 -25 2 -35 4 -22 2 12 2 32 0 45 -2 12 -4 2 -4 -23z"/>
<path d="M2813 4735 c0 -22 2 -30 4 -17 2 12 2 30 0 40 -3 9 -5 -1 -4 -23z"/>
<path d="M6842 4735 c0 -16 2 -22 5 -12 2 9 2 23 0 30 -3 6 -5 -1 -5 -18z"/>
<path d="M2822 4650 c0 -14 4 -36 8 -50 6 -20 8 -21 8 -5 0 11 -4 34 -8 50 -7 27 -8 27 -8 5z"/>
<path d="M6832 4650 c0 -14 2 -19 5 -12 2 6 2 18 0 25 -3 6 -5 1 -5 -13z"/>
<path d="M6822 4600 c0 -14 2 -19 5 -12 2 6 2 18 0 25 -3 6 -5 1 -5 -13z"/>
<path d="M6806 4519 c-4 -23 -5 -44 -2 -46 2 -2 7 14 11 37 4 23 5 43 2 46 -2 3 -7 -14 -11 -37z"/>
<path d="M2841 4534 c0 -11 3 -14 6 -6 3 7 2 16 -1 19 -3 4 -6 -2 -5 -13z"/>
<path d="M2852 4490 c0 -14 2 -19 5 -12 2 6 2 18 0 25 -3 6 -5 1 -5 -13z"/>
<path d="M6786 4424 c-4 -14 -5 -28 -3 -31 3 -2 8 8 11 23 4 14 5 28 3 31 -3 2 -8 -8 -11 -23z"/>
<path d="M2871 4404 c0 -11 3 -14 6 -6 3 7 2 16 -1 19 -3 4 -6 -2 -5 -13z"/>
<path d="M6771 4373 c-1 -6 -4 -20 -7 -30 -5 -17 -5 -17 6 0 6 10 9 23 6 30 -3 9 -5 9 -5 0z"/>
<path d="M6746 4284 c-4 -14 -5 -28 -3 -31 3 -2 8 8 11 23 4 14 5 28 3 31 -3 2 -8 -8 -11 -23z"/>
<path d="M2901 4295 c1 -19 18 -51 18 -35 0 8 -4 22 -9 30 -5 8 -9 11 -9 5z"/>
<path d="M6726 4214 c-4 -14 -5 -28 -3 -31 3 -2 8 8 11 23 4 14 5 28 3 31 -3 2 -8 -8 -11 -23z"/>
<path d="M6705 4159 c-4 -6 -5 -12 -2 -15 2 -3 7 2 10 11 7 17 1 20 -8 4z"/>
<path d="M2960 4115 c0 -5 5 -17 10 -25 5 -8 10 -10 10 -5 0 6 -5 17 -10 25 -5 8 -10 11 -10 5z"/>
<path d="M6686 4105 c-9 -26 -7 -32 5 -12 6 10 9 21 6 23 -2 3 -7 -2 -11 -11z"/>
<path d="M2980 4065 c0 -5 5 -17 10 -25 5 -8 10 -10 10 -5 0 6 -5 17 -10 25 -5 8 -10 11 -10 5z"/>
<path d="M6646 3993 c-6 -14 -5 -15 5 -6 7 7 10 15 7 18 -3 3 -9 -2 -12 -12z"/>
<path d="M6626 3955 c-9 -26 -7 -32 5 -12 6 10 9 21 6 23 -2 3 -7 -2 -11 -11z"/>
<path d="M6606 3905 c-9 -26 -7 -32 5 -12 6 10 9 21 6 23 -2 3 -7 -2 -11 -11z"/>
<path d="M3060 3875 c0 -5 5 -17 10 -25 5 -8 10 -10 10 -5 0 6 -5 17 -10 25 -5 8 -10 11 -10 5z"/>
<path d="M3080 3821 c0 -6 4 -13 10 -16 6 -3 7 1 4 9 -7 18 -14 21 -14 7z"/>
<path d="M3106 3777 c3 -10 9 -15 12 -12 3 3 0 11 -7 18 -10 9 -11 8 -5 -6z"/>
<path d="M3126 3737 c3 -10 9 -15 12 -12 3 3 0 11 -7 18 -10 9 -11 8 -5 -6z"/>
<path d="M3195 3610 c9 -16 18 -30 21 -30 2 0 -2 14 -11 30 -9 17 -18 30 -21 30 -2 0 2 -13 11 -30z"/>
<path d="M3230 3546 c0 -2 8 -10 18 -17 15 -13 16 -12 3 4 -13 16 -21 21 -21 13z"/>
<path d="M3279 3472 c5 -10 18 -25 27 -33 11 -9 9 -2 -6 19 -26 35 -36 42 -21 14z"/>
<path d="M3350 3370 c6 -11 13 -20 16 -20 2 0 0 9 -6 20 -6 11 -13 20 -16 20 -2 0 0 -9 6 -20z"/>
</g>
</g>
  <g id="id4:id4" transform="matrix(1.25,0,0,1.25,0.0,0.0)"><g transform="translate(0.000000,400.000000) scale(0.040000,-0.040000)" fill="#bcbeb6" stroke="none">
<path d="M4238 7213 c7 -3 16 -2 19 1 4 3 -2 6 -13 5 -11 0 -14 -3 -6 -6z"/>
<path d="M5763 7213 c20 -2 54 -2 75 0 20 2 3 4 -38 4 -41 0 -58 -2 -37 -4z"/>
<path d="M5663 7203 c9 -2 25 -2 35 0 9 3 1 5 -18 5 -19 0 -27 -2 -17 -5z"/>
<path d="M5888 7203 c7 -3 16 -2 19 1 4 3 -2 6 -13 5 -11 0 -14 -3 -6 -6z"/>
<path d="M5930 7190 c8 -5 20 -10 25 -10 6 0 3 5 -5 10 -8 5 -19 10 -25 10 -5 0 -3 -5 5 -10z"/>
<path d="M4099 7173 c-13 -16 -12 -17 4 -4 9 7 17 15 17 17 0 8 -8 3 -21 -13z"/>
<path d="M5528 7183 c7 -3 16 -2 19 1 4 3 -2 6 -13 5 -11 0 -14 -3 -6 -6z"/>
<path d="M4410 7095 c19 -19 36 -35 39 -35 3 0 -10 16 -29 35 -19 19 -36 35 -39 35 -3 0 10 -16 29 -35z"/>
<path d="M5180 7070 c-8 -5 -10 -10 -5 -10 6 0 17 5 25 10 8 5 11 10 5 10 -5 0 -17 -5 -25 -10z"/>
<path d="M5140 7050 c-9 -6 -10 -10 -3 -10 6 0 15 5 18 10 8 12 4 12 -15 0z"/>
<path d="M5054 6994 c-18 -14 -18 -15 4 -4 12 6 22 13 22 15 0 8 -5 6 -26 -11z"/>
<path d="M6101 6984 c0 -11 3 -14 6 -6 3 7 2 16 -1 19 -3 4 -6 -2 -5 -13z"/>
<path d="M4520 6987 c0 -2 15 -16 33 -33 l32 -29 -29 33 c-28 30 -36 37 -36 29z"/>
<path d="M4984 6938 l-19 -23 23 19 c12 11 22 21 22 23 0 8 -8 2 -26 -19z"/>
<path d="M6111 6944 c0 -11 3 -14 6 -6 3 7 2 16 -1 19 -3 4 -6 -2 -5 -13z"/>
<path d="M4130 6936 c0 -2 8 -10 18 -17 15 -13 16 -12 3 4 -13 16 -21 21 -21 13z"/>
<path d="M4600 6896 c0 -2 8 -10 18 -17 15 -13 16 -12 3 4 -13 16 -21 21 -21 13z"/>
<path d="M4200 6877 c0 -2 15 -16 33 -33 l32 -29 -29 33 c-28 30 -36 37 -36 29z"/>
<path d="M6132 6840 c0 -14 2 -19 5 -12 2 6 2 18 0 25 -3 6 -5 1 -5 -13z"/>
<path d="M4879 6833 c-13 -16 -12 -17 4 -4 9 7 17 15 17 17 0 8 -8 3 -21 -13z"/>
<path d="M4300 6775 c19 -19 36 -35 39 -35 3 0 -10 16 -29 35 -19 19 -36 35 -39 35 -3 0 10 -16 29 -35z"/>
<path d="M4802 6715 c-17 -37 -14 -45 4 -12 9 16 14 31 11 33 -2 2 -9 -7 -15 -21z"/>
<path d="M6142 6720 c0 -14 2 -19 5 -12 2 6 2 18 0 25 -3 6 -5 1 -5 -13z"/>
<path d="M6131 6624 c0 -11 3 -14 6 -6 3 7 2 16 -1 19 -3 4 -6 -2 -5 -13z"/>
<path d="M6111 6534 c0 -11 3 -14 6 -6 3 7 2 16 -1 19 -3 4 -6 -2 -5 -13z"/>
<path d="M6101 6494 c0 -11 3 -14 6 -6 3 7 2 16 -1 19 -3 4 -6 -2 -5 -13z"/>
<path d="M6091 6453 c-1 -6 -4 -20 -7 -30 -5 -17 -5 -17 6 0 6 10 9 23 6 30 -3 9 -5 9 -5 0z"/>
<path d="M4566 6397 c3 -10 9 -15 12 -12 3 3 0 11 -7 18 -10 9 -11 8 -5 -6z"/>
<path d="M4606 6317 c3 -10 9 -15 12 -12 3 3 0 11 -7 18 -10 9 -11 8 -5 -6z"/>
<path d="M6026 6293 c-6 -14 -5 -15 5 -6 7 7 10 15 7 18 -3 3 -9 -2 -12 -12z"/>
<path d="M4646 6227 c3 -10 9 -15 12 -12 3 3 0 11 -7 18 -10 9 -11 8 -5 -6z"/>
<path d="M5980 6215 c-7 -9 -11 -17 -9 -20 3 -2 10 5 17 15 14 24 10 26 -8 5z"/>
<path d="M6560 3780 c0 -4 28 -10 63 -12 35 -3 77 -13 95 -22 26 -14 32 -22 32 -51 0 -42 -45 -82 -137 -121 -59 -25 -80 -50 -50 -58 6 -2 59 -11 117 -20 243 -37 421 -98 488 -166 87 -91 0 -192 -280 -324 -346 -163 -788 -272 -1195 -295 -179 -10 -510 1 -687 23 -87 11 -138 13 -190 6 -237 -31 -733 -43 -896 -21 -221 30 -383 77 -532 153 -200 102 -289 230 -233 337 16 32 116 103 170 121 19 6 35 16 35 21 0 15 -138 -59 -180 -97 -192 -174 124 -441 625 -529 207 -36 631 -37 970 -1 72 8 133 12 136 10 23 -13 384 -35 589 -36 266 0 421 14 640 58 506 101 988 310 1060 459 19 39 20 46 7 77 -25 58 -95 104 -223 148 -64 23 -261 65 -347 75 -31 4 -60 11 -63 16 -2 5 23 22 58 40 82 42 114 66 128 99 17 40 -1 76 -46 90 -45 15 -154 29 -154 20z"/>
</g>
</g>
  <g id="id5:id5" transform="matrix(1.25,0,0,1.25,0.0,0.0)"><g transform="translate(0.000000,400.000000) scale(0.040000,-0.040000)" fill="#9b9a99" stroke="none">
<path d="M4198 7213 c6 -2 18 -2 25 0 6 3 1 5 -13 5 -14 0 -19 -2 -12 -5z"/>
<path d="M4062 7070 c0 -19 2 -27 5 -17 2 9 2 25 0 35 -3 9 -5 1 -5 -18z"/>
<path d="M4480 7025 c19 -19 36 -35 39 -35 3 0 -10 16 -29 35 -19 19 -36 35 -39 35 -3 0 10 -16 29 -35z"/>
<path d="M4105 6960 c10 -11 20 -20 23 -20 3 0 -3 9 -13 20 -10 11 -20 20 -23 20 -3 0 3 -9 13 -20z"/>
<path d="M4575 6920 c10 -11 20 -20 23 -20 3 0 -3 9 -13 20 -10 11 -20 20 -23 20 -3 0 3 -9 13 -20z"/>
<path d="M4170 6905 c13 -14 26 -25 28 -25 3 0 -5 11 -18 25 -13 14 -26 25 -28 25 -3 0 5 -11 18 -25z"/>
<path d="M4270 6815 c13 -14 26 -25 28 -25 3 0 -5 11 -18 25 -13 14 -26 25 -28 25 -3 0 5 -11 18 -25z"/>
<path d="M4340 6736 c0 -2 8 -10 18 -17 15 -13 16 -12 3 4 -13 16 -21 21 -21 13z"/>
<path d="M4640 6251 c0 -6 4 -13 10 -16 6 -3 7 1 4 9 -7 18 -14 21 -14 7z"/>
<path d="M6555 3769 c3 -3 30 -9 60 -13 168 -19 167 -83 -2 -163 -67 -32 -93 -49 -93 -63 0 -24 9 -26 161 -50 159 -24 273 -53 364 -91 149 -63 181 -135 95 -212 -182 -166 -685 -351 -1132 -417 -283 -42 -669 -45 -1007 -9 -85 9 -139 9 -240 0 -398 -36 -767 -33 -991 8 -394 73 -692 290 -604 440 18 30 99 88 162 116 23 10 42 22 42 26 0 13 -105 -36 -156 -73 -55 -40 -74 -73 -74 -131 0 -178 334 -357 780 -418 163 -22 659 -10 896 21 52 7 103 5 190 -6 301 -37 708 -35 974 6 502 77 1043 280 1189 446 112 127 -76 247 -489 310 -58 9 -111 18 -117 20 -30 8 -9 33 50 58 92 39 137 79 137 121 0 28 -6 37 -31 50 -31 16 -171 37 -164 24z"/>
</g>
</g>
  <g id="id6:id6" transform="matrix(1.25,0,0,1.25,0.0,0.0)"><g transform="translate(0.000000,400.000000) scale(0.040000,-0.040000)" fill="#818181" stroke="none">
<path d="M4225 6860 c10 -11 20 -20 23 -20 3 0 -3 9 -13 20 -10 11 -20 20 -23 20 -3 0 3 -9 13 -20z"/>
<path d="M6550 3756 c0 -10 -40 -79 -126 -222 -100 -164 -258 -351 -389 -461 -120 -100 -276 -181 -389 -202 -73 -13 -235 -14 -336 -1 -104 14 -268 64 -377 116 -51 24 -98 44 -103 44 -6 0 -45 -17 -88 -39 -79 -39 -221 -88 -327 -112 -82 -19 -386 -19 -440 0 -138 47 -277 129 -390 231 -73 67 -205 209 -205 222 0 11 -94 -35 -150 -73 -26 -18 -55 -45 -64 -60 -88 -150 209 -367 604 -440 224 -41 593 -44 991 -8 101 9 155 9 240 0 338 -36 724 -33 1007 9 447 66 950 251 1132 417 86 77 54 149 -95 212 -91 38 -205 67 -364 91 -152 24 -161 26 -161 50 0 14 26 31 93 63 127 60 163 113 95 142 -47 19 -158 34 -158 21z"/>
</g>
</g>
  <g id="id7:id7" transform="matrix(1.25,0,0,1.25,0.0,0.0)"><g transform="translate(0.000000,400.000000) scale(0.040000,-0.040000)" fill="#9ccc65" stroke="none">
<path d="M5753 7203 c26 -2 67 -2 90 0 23 2 2 3 -48 3 -49 0 -68 -1 -42 -3z"/>
<path d="M5618 7193 c12 -2 30 -2 40 0 9 3 -1 5 -23 4 -22 0 -30 -2 -17 -4z"/>
<path d="M5898 7193 c7 -3 16 -2 19 1 4 3 -2 6 -13 5 -11 0 -14 -3 -6 -6z"/>
<path d="M5558 7183 c6 -2 18 -2 25 0 6 3 1 5 -13 5 -14 0 -19 -2 -12 -5z"/>
<path d="M5498 7173 c7 -3 16 -2 19 1 4 3 -2 6 -13 5 -11 0 -14 -3 -6 -6z"/>
<path d="M5951 7177 c2 -1 13 -9 24 -17 19 -14 19 -14 6 3 -7 9 -18 17 -24 17 -6 0 -8 -1 -6 -3z"/>
<path d="M5368 7133 c7 -3 16 -2 19 1 4 3 -2 6 -13 5 -11 0 -14 -3 -6 -6z"/>
<path d="M6010 7136 c0 -2 8 -10 18 -17 15 -13 16 -12 3 4 -13 16 -21 21 -21 13z"/>
<path d="M5280 7110 c-18 -12 -2 -12 25 0 13 6 15 9 5 9 -8 0 -22 -4 -30 -9z"/>
<path d="M6040 7096 c0 -2 8 -10 18 -17 15 -13 16 -12 3 4 -13 16 -21 21 -21 13z"/>
<path d="M5155 7050 c-3 -6 1 -7 9 -4 18 7 21 14 7 14 -6 0 -13 -4 -16 -10z"/>
<path d="M5109 7023 c-13 -17 -13 -17 6 -3 11 8 22 16 24 17 2 2 0 3 -6 3 -6 0 -17 -8 -24 -17z"/>
<path d="M6091 6994 c0 -11 3 -14 6 -6 3 7 2 16 -1 19 -3 4 -6 -2 -5 -13z"/>
<path d="M5017 6958 c-31 -31 -31 -32 -2 -8 16 14 34 28 40 32 5 5 6 8 2 8 -4 0 -22 -15 -40 -32z"/>
<path d="M5610 6964 c-212 -37 -403 -107 -536 -196 -69 -46 -224 -198 -224 -220 0 -6 9 -27 19 -47 30 -55 87 -189 106 -248 18 -59 22 -60 103 -42 l49 10 6 74 c14 159 84 302 212 431 76 76 105 98 180 135 103 49 143 54 180 19 28 -26 34 -75 13 -103 -7 -9 -53 -36 -103 -60 -162 -80 -256 -193 -297 -363 -12 -46 -19 -86 -17 -88 2 -2 46 0 98 5 121 11 296 -3 430 -36 57 -14 110 -29 119 -34 11 -6 21 -3 33 13 26 33 90 165 104 216 26 90 57 240 52 253 -3 6 -6 -1 -6 -18 -1 -23 -4 -27 -11 -15 -5 8 -10 26 -10 39 0 102 -75 217 -172 265 -46 23 -63 26 -152 25 -56 -1 -135 -7 -176 -15z"/>
<path d="M6101 6954 c0 -11 3 -14 6 -6 3 7 2 16 -1 19 -3 4 -6 -2 -5 -13z"/>
<path d="M6112 6910 c0 -14 2 -19 5 -12 2 6 2 18 0 25 -3 6 -5 1 -5 -13z"/>
<path d="M4939 6893 l-24 -28 28 24 c25 23 32 31 24 31 -2 0 -14 -12 -28 -27z"/>
<path d="M6121 6854 c0 -11 3 -14 6 -6 3 7 2 16 -1 19 -3 4 -6 -2 -5 -13z"/>
<path d="M4879 6823 c-13 -16 -12 -17 4 -4 9 7 17 15 17 17 0 8 -8 3 -21 -13z"/>
<path d="M6132 6790 c0 -19 2 -27 5 -17 2 9 2 25 0 35 -3 9 -5 1 -5 -18z"/>
<path d="M4840 6770 c-12 -16 -19 -30 -16 -30 2 0 14 14 26 30 12 17 19 30 16 30 -2 0 -14 -13 -26 -30z"/>
<path d="M4786 6665 c-3 -8 -1 -15 4 -15 6 0 10 7 10 15 0 8 -2 15 -4 15 -2 0 -6 -7 -10 -15z"/>
</g>
</g>
  <g id="id8:id8" transform="matrix(1.25,0,0,1.25,0.0,0.0)"><g transform="translate(0.000000,400.000000) scale(0.040000,-0.040000)" fill="#8dba56" stroke="none">
<path d="M5708 7193 c23 -2 59 -2 80 0 20 2 1 4 -43 4 -44 0 -61 -2 -37 -4z"/>
<path d="M5853 7193 c9 -2 23 -2 30 0 6 3 -1 5 -18 5 -16 0 -22 -2 -12 -5z"/>
<path d="M5555 7180 c-34 -6 -36 -7 -10 -8 17 0 48 3 70 7 33 7 35 9 10 8 -16 0 -48 -3 -70 -7z"/>
<path d="M5920 7180 c8 -5 20 -10 25 -10 6 0 3 5 -5 10 -8 5 -19 10 -25 10 -5 0 -3 -5 5 -10z"/>
<path d="M5465 7160 c-13 -6 -15 -9 -5 -9 8 0 22 4 30 9 18 12 2 12 -25 0z"/>
<path d="M6010 7125 c13 -14 26 -25 28 -25 3 0 -5 11 -18 25 -13 14 -26 25 -28 25 -3 0 5 -11 18 -25z"/>
<path d="M5335 7120 c-13 -5 -14 -9 -5 -9 8 0 24 4 35 9 13 5 14 9 5 9 -8 0 -24 -4 -35 -9z"/>
<path d="M5190 7060 c-30 -16 -51 -29 -47 -30 10 0 107 49 107 55 0 7 1 7 -60 -25z"/>
<path d="M6071 7040 c0 -8 4 -22 9 -30 12 -18 12 -2 0 25 -6 13 -9 15 -9 5z"/>
<path d="M5625 6981 c-171 -31 -247 -51 -346 -91 -145 -58 -242 -121 -346 -225 -87 -87 -110 -124 -84 -139 5 -4 7 2 4 12 -7 27 131 170 221 230 181 121 488 211 722 212 77 0 98 -4 142 -26 70 -35 135 -109 155 -176 15 -51 15 -52 16 -17 2 64 -79 163 -172 211 -58 30 -180 33 -312 9z"/>
<path d="M6091 6964 c0 -11 3 -14 6 -6 3 7 2 16 -1 19 -3 4 -6 -2 -5 -13z"/>
<path d="M5014 6948 l-19 -23 23 19 c21 18 27 26 19 26 -2 0 -12 -10 -23 -22z"/>
<path d="M4935 6878 l-40 -43 43 40 c39 36 47 45 39 45 -2 0 -21 -19 -42 -42z"/>
<path d="M5558 6876 c-96 -42 -160 -88 -241 -176 -105 -113 -174 -268 -182 -408 l-4 -77 9 72 c27 208 144 407 303 515 33 22 96 56 141 74 45 18 74 33 66 33 -8 1 -50 -14 -92 -33z"/>
<path d="M5694 6875 c31 -28 35 -74 9 -97 -10 -8 -54 -33 -98 -54 -170 -83 -288 -244 -309 -421 -4 -33 2 -19 18 44 47 179 137 290 301 370 100 49 115 63 115 108 0 29 -33 75 -55 75 -4 0 4 -11 19 -25z"/>
<path d="M6112 6870 c0 -14 2 -19 5 -12 2 6 2 18 0 25 -3 6 -5 1 -5 -13z"/>
<path d="M6121 6824 c0 -11 3 -14 6 -6 3 7 2 16 -1 19 -3 4 -6 -2 -5 -13z"/>
<path d="M4879 6813 c-13 -16 -12 -17 4 -4 9 7 17 15 17 17 0 8 -8 3 -21 -13z"/>
<path d="M4832 6748 c-5 -7 -16 -31 -23 -53 -8 -22 -18 -43 -24 -47 -6 -5 -2 -8 8 -8 11 0 17 8 17 20 0 12 9 39 19 60 20 41 21 49 3 28z"/>
<path d="M6133 6725 c0 -22 2 -30 4 -17 2 12 2 30 0 40 -3 9 -5 -1 -4 -23z"/>
<path d="M6110 6694 c0 -16 5 -36 11 -44 7 -11 8 -4 3 25 -8 50 -14 58 -14 19z"/>
<path d="M4860 6505 c1 -6 10 -26 21 -45 15 -26 18 -29 13 -10 -7 27 -34 71 -34 55z"/>
<path d="M4900 6411 c0 -6 4 -13 10 -16 6 -3 7 1 4 9 -7 18 -14 21 -14 7z"/>
<path d="M4921 6375 c0 -5 9 -28 20 -50 10 -22 16 -29 13 -15 -7 28 -33 80 -33 65z"/>
<path d="M4961 6270 c0 -8 4 -22 9 -30 12 -18 12 -2 0 25 -6 13 -9 15 -9 5z"/>
<path d="M5473 6273 c15 -2 37 -2 50 0 12 2 0 4 -28 4 -27 0 -38 -2 -22 -4z"/>
<path d="M5348 6263 c12 -2 30 -2 40 0 9 3 -1 5 -23 4 -22 0 -30 -2 -17 -4z"/>
<path d="M5628 6263 c12 -2 30 -2 40 0 9 3 -1 5 -23 4 -22 0 -30 -2 -17 -4z"/>
<path d="M5718 6253 c7 -3 16 -2 19 1 4 3 -2 6 -13 5 -11 0 -14 -3 -6 -6z"/>
<path d="M5768 6243 c7 -3 16 -2 19 1 4 3 -2 6 -13 5 -11 0 -14 -3 -6 -6z"/>
<path d="M4983 6210 c2 -8 12 -16 23 -17 13 -2 15 -1 4 4 -8 3 -19 11 -23 17 -6 7 -7 6 -4 -4z"/>
<path d="M5058 6203 c7 -3 16 -2 19 1 4 3 -2 6 -13 5 -11 0 -14 -3 -6 -6z"/>
</g>
</g>
  <g id="id9:id9" transform="matrix(1.25,0,0,1.25,0.0,0.0)"><g transform="translate(0.000000,400.000000) scale(0.040000,-0.040000)" fill="#76ad42" stroke="none">
<path d="M5770 7193 c-148 -6 -271 -27 -378 -64 -29 -11 -60 -19 -68 -19 -21 0 -202 -90 -256 -128 -129 -89 -258 -249 -258 -322 0 -10 -5 -20 -11 -22 -8 -3 -4 -18 10 -47 l22 -42 28 38 c47 64 163 167 246 217 180 109 463 189 680 190 104 1 113 -1 164 -29 57 -31 125 -101 147 -150 7 -16 17 -57 21 -90 l8 -60 3 50 c4 52 -10 150 -35 245 -8 30 -17 65 -20 77 -8 36 -78 109 -125 130 -47 22 -95 29 -178 26z"/>
<path d="M5568 6870 c-232 -98 -404 -334 -425 -582 l-6 -70 24 8 c13 4 46 13 74 19 l49 11 12 60 c39 190 142 326 309 408 99 48 115 62 115 98 0 32 -42 79 -69 77 -9 0 -46 -13 -83 -29z"/>
</g>
</g>
  <g id="id10:id10" transform="matrix(1.25,0,0,1.25,0.0,0.0)"><g transform="translate(0.000000,400.000000) scale(0.040000,-0.040000)" fill="#e06d6c" stroke="none">
<path d="M4013 6253 c15 -2 39 -2 55 0 15 2 2 4 -28 4 -30 0 -43 -2 -27 -4z"/>
<path d="M4243 6253 c15 -2 39 -2 55 0 15 2 2 4 -28 4 -30 0 -43 -2 -27 -4z"/>
<path d="M3943 6243 c9 -2 23 -2 30 0 6 3 -1 5 -18 5 -16 0 -22 -2 -12 -5z"/>
<path d="M4348 6243 c6 -2 18 -2 25 0 6 3 1 5 -13 5 -14 0 -19 -2 -12 -5z"/>
<path d="M4418 6233 c7 -3 16 -2 19 1 4 3 -2 6 -13 5 -11 0 -14 -3 -6 -6z"/>
<path d="M4458 6223 c7 -3 16 -2 19 1 4 3 -2 6 -13 5 -11 0 -14 -3 -6 -6z"/>
<path d="M4498 6213 c7 -3 16 -2 19 1 4 3 -2 6 -13 5 -11 0 -14 -3 -6 -6z"/>
<path d="M4578 6193 c7 -3 16 -2 19 1 4 3 -2 6 -13 5 -11 0 -14 -3 -6 -6z"/>
<path d="M4623 6183 c9 -2 25 -2 35 0 9 3 1 5 -18 5 -19 0 -27 -2 -17 -5z"/>
<path d="M3580 6135 c-25 -13 -40 -24 -35 -24 6 0 30 11 55 24 25 13 41 24 35 24 -5 0 -30 -11 -55 -24z"/>
<path d="M3354 5998 l-19 -23 23 19 c21 18 27 26 19 26 -2 0 -12 -10 -23 -22z"/>
<path d="M6280 6016 c0 -2 8 -10 18 -17 15 -13 16 -12 3 4 -13 16 -21 21 -21 13z"/>
<path d="M3210 5873 l-85 -88 88 85 c48 46 87 86 87 87 0 8 -11 -3 -90 -84z"/>
<path d="M6360 5957 c0 -2 15 -16 33 -33 l32 -29 -29 33 c-28 30 -36 37 -36 29z"/>
<path d="M6530 5780 c17 -22 37 -43 43 -47 6 -4 -6 14 -27 40 -21 26 -40 47 -43 47 -3 0 10 -18 27 -40z"/>
<path d="M3099 5753 l-24 -28 28 24 c25 23 32 31 24 31 -2 0 -14 -12 -28 -27z"/>
<path d="M6590 5701 c5 -11 15 -23 21 -27 6 -3 3 5 -6 20 -20 30 -30 35 -15 7z"/>
<path d="M3039 5673 c-13 -16 -12 -17 4 -4 16 13 21 21 13 21 -2 0 -10 -8 -17 -17z"/>
<path d="M3005 5620 c-9 -16 -13 -30 -11 -30 3 0 12 14 21 30 9 17 13 30 11 30 -3 0 -12 -13 -21 -30z"/>
<path d="M6659 5593 c21 -40 65 -105 59 -88 -5 17 -70 125 -74 125 -2 0 4 -17 15 -37z"/>
<path d="M2926 5475 c-9 -26 -7 -32 5 -12 6 10 9 21 6 23 -2 3 -7 -2 -11 -11z"/>
<path d="M6725 5471 c12 -39 35 -91 40 -91 5 0 -34 102 -42 110 -3 3 -2 -6 2 -19z"/>
<path d="M2885 5379 c-4 -6 -5 -12 -2 -15 2 -3 7 2 10 11 7 17 1 20 -8 4z"/>
<path d="M6786 5315 c8 -37 14 -45 14 -19 0 10 -5 26 -10 34 -8 11 -9 7 -4 -15z"/>
<path d="M2861 5294 c0 -11 3 -14 6 -6 3 7 2 16 -1 19 -3 4 -6 -2 -5 -13z"/>
<path d="M6802 5255 c0 -11 4 -31 8 -45 6 -20 8 -21 8 -5 0 11 -4 31 -8 45 -6 20 -8 21 -8 5z"/>
<path d="M6822 5160 c0 -14 2 -19 5 -12 2 6 2 18 0 25 -3 6 -5 1 -5 -13z"/>
<path d="M2821 5124 c0 -11 3 -14 6 -6 3 7 2 16 -1 19 -3 4 -6 -2 -5 -13z"/>
<path d="M6832 5105 c0 -16 2 -22 5 -12 2 9 2 23 0 30 -3 6 -5 -1 -5 -18z"/>
<path d="M2812 5035 c0 -16 2 -22 5 -12 2 9 2 23 0 30 -3 6 -5 -1 -5 -18z"/>
<path d="M6842 5030 c0 -19 2 -27 5 -17 2 9 2 25 0 35 -3 9 -5 1 -5 -18z"/>
<path d="M6853 4915 c0 -33 2 -45 4 -27 2 18 2 45 0 60 -2 15 -4 0 -4 -33z"/>
<path d="M2812 4795 c0 -16 2 -22 5 -12 2 9 2 23 0 30 -3 6 -5 -1 -5 -18z"/>
<path d="M6842 4790 c0 -19 2 -27 5 -17 2 9 2 25 0 35 -3 9 -5 1 -5 -18z"/>
<path d="M6833 4705 c0 -22 2 -30 4 -17 2 12 2 30 0 40 -3 9 -5 -1 -4 -23z"/>
<path d="M2821 4684 c0 -11 3 -14 6 -6 3 7 2 16 -1 19 -3 4 -6 -2 -5 -13z"/>
<path d="M6822 4640 c0 -14 2 -19 5 -12 2 6 2 18 0 25 -3 6 -5 1 -5 -13z"/>
<path d="M6812 4585 c0 -16 2 -22 5 -12 2 9 2 23 0 30 -3 6 -5 -1 -5 -18z"/>
<path d="M2841 4564 c0 -11 3 -14 6 -6 3 7 2 16 -1 19 -3 4 -6 -2 -5 -13z"/>
<path d="M6802 4530 c0 -14 2 -19 5 -12 2 6 2 18 0 25 -3 6 -5 1 -5 -13z"/>
<path d="M2851 4524 c0 -11 3 -14 6 -6 3 7 2 16 -1 19 -3 4 -6 -2 -5 -13z"/>
<path d="M6791 4485 c-1 -11 -4 -31 -6 -45 l-6 -25 11 25 c6 13 9 33 7 45 -4 19 -4 19 -6 0z"/>
<path d="M2862 4470 c0 -14 2 -19 5 -12 2 6 2 18 0 25 -3 6 -5 1 -5 -13z"/>
<path d="M2881 4384 c0 -11 3 -14 6 -6 3 7 2 16 -1 19 -3 4 -6 -2 -5 -13z"/>
<path d="M6736 4279 c-10 -33 -16 -63 -13 -65 2 -2 11 24 21 57 9 34 15 63 13 66 -2 2 -12 -24 -21 -58z"/>
<path d="M2901 4320 c0 -8 4 -22 9 -30 12 -18 12 -2 0 25 -6 13 -9 15 -9 5z"/>
<path d="M2941 4190 c0 -8 4 -22 9 -30 12 -18 12 -2 0 25 -6 13 -9 15 -9 5z"/>
<path d="M6707 4181 c-4 -17 -3 -21 5 -13 5 5 8 16 6 23 -3 8 -7 3 -11 -10z"/>
<path d="M6667 4073 c-15 -42 -26 -78 -24 -80 3 -2 16 31 31 73 15 42 26 78 23 80 -2 2 -16 -31 -30 -73z"/>
<path d="M2980 4085 c0 -5 5 -17 10 -25 5 -8 10 -10 10 -5 0 6 -5 17 -10 25 -5 8 -10 11 -10 5z"/>
<path d="M3001 4030 c0 -8 4 -22 9 -30 12 -18 12 -2 0 25 -6 13 -9 15 -9 5z"/>
<path d="M3020 3975 c0 -5 5 -17 10 -25 5 -8 10 -10 10 -5 0 6 -5 17 -10 25 -5 8 -10 11 -10 5z"/>
<path d="M6582 3867 c-18 -39 -32 -76 -32 -82 0 -5 16 25 36 69 19 43 33 80 31 82 -2 2 -18 -29 -35 -69z"/>
<path d="M3051 3910 c14 -31 19 -36 19 -24 0 6 -7 19 -16 30 -14 18 -14 18 -3 -6z"/>
<path d="M3120 3761 c0 -6 4 -13 10 -16 6 -3 7 1 4 9 -7 18 -14 21 -14 7z"/>
<path d="M3140 3726 c0 -11 30 -66 36 -66 2 0 -3 15 -12 33 -19 36 -24 44 -24 33z"/>
<path d="M3230 3556 c0 -2 8 -10 18 -17 15 -13 16 -12 3 4 -13 16 -21 21 -21 13z"/>
</g>
</g>
  <g id="id11:id11" transform="matrix(1.25,0,0,1.25,0.0,0.0)"><g transform="translate(0.000000,400.000000) scale(0.040000,-0.040000)" fill="#c74f49" stroke="none">
<path d="M5377 6260 c-49 -5 -91 -10 -93 -12 -2 -3 72 -2 165 0 215 6 317 -9 516 -73 18 -6 18 -6 2 5 -26 17 -172 57 -252 69 -106 16 -240 20 -338 11z"/>
<path d="M4117 6253 c18 -2 50 -2 70 0 21 2 7 4 -32 4 -38 0 -55 -2 -38 -4z"/>
<path d="M3898 6233 c6 -2 18 -2 25 0 6 3 1 5 -13 5 -14 0 -19 -2 -12 -5z"/>
<path d="M5205 6230 c-25 -11 1 -11 35 0 20 6 21 8 5 8 -11 0 -29 -3 -40 -8z"/>
<path d="M5070 6200 c-47 -11 -64 -18 -45 -19 17 -1 59 8 95 18 81 24 50 24 -50 1z"/>
<path d="M4548 6193 c7 -3 16 -2 19 1 4 3 -2 6 -13 5 -11 0 -14 -3 -6 -6z"/>
<path d="M4735 6170 c55 -4 134 -4 175 0 55 5 29 7 -100 7 -153 0 -163 -1 -75 -7z"/>
<path d="M6047 6139 c7 -7 15 -10 18 -7 3 3 -2 9 -12 12 -14 6 -15 5 -6 -5z"/>
<path d="M3369 6003 c-13 -16 -12 -17 4 -4 9 7 17 15 17 17 0 8 -8 3 -21 -13z"/>
<path d="M3279 5933 l-24 -28 28 24 c25 23 32 31 24 31 -2 0 -14 -12 -28 -27z"/>
<path d="M6370 5935 c13 -14 26 -25 28 -25 3 0 -5 11 -18 25 -13 14 -26 25 -28 25 -3 0 5 -11 18 -25z"/>
<path d="M6435 5880 c10 -11 20 -20 23 -20 3 0 -3 9 -13 20 -10 11 -20 20 -23 20 -3 0 3 -9 13 -20z"/>
<path d="M6470 5846 c0 -2 8 -10 18 -17 15 -13 16 -12 3 4 -13 16 -21 21 -21 13z"/>
<path d="M3139 5793 c-13 -16 -12 -17 4 -4 9 7 17 15 17 17 0 8 -8 3 -21 -13z"/>
<path d="M2851 5234 c0 -11 3 -14 6 -6 3 7 2 16 -1 19 -3 4 -6 -2 -5 -13z"/>
<path d="M2841 5194 c0 -11 3 -14 6 -6 3 7 2 16 -1 19 -3 4 -6 -2 -5 -13z"/>
<path d="M2831 5144 c0 -11 3 -14 6 -6 3 7 2 16 -1 19 -3 4 -6 -2 -5 -13z"/>
<path d="M2822 5085 c0 -16 2 -22 5 -12 2 9 2 23 0 30 -3 6 -5 -1 -5 -18z"/>
<path d="M2814 4915 c0 -55 1 -76 3 -47 2 29 2 74 0 100 -2 26 -3 2 -3 -53z"/>
<path d="M6843 4960 c0 -25 2 -35 4 -22 2 12 2 32 0 45 -2 12 -4 2 -4 -23z"/>
<path d="M6843 4860 c0 -25 2 -35 4 -22 2 12 2 32 0 45 -2 12 -4 2 -4 -23z"/>
<path d="M2822 4730 c0 -19 2 -27 5 -17 2 9 2 25 0 35 -3 9 -5 1 -5 -18z"/>
<path d="M2832 4660 c0 -14 2 -19 5 -12 2 6 2 18 0 25 -3 6 -5 1 -5 -13z"/>
<path d="M2842 4600 c0 -14 2 -19 5 -12 2 6 2 18 0 25 -3 6 -5 1 -5 -13z"/>
<path d="M2861 4504 c0 -11 3 -14 6 -6 3 7 2 16 -1 19 -3 4 -6 -2 -5 -13z"/>
<path d="M6536 3773 c-3 -11 -35 -70 -71 -132 -246 -428 -538 -693 -825 -747 -98 -19 -262 -15 -399 10 -94 17 -123 15 -39 -4 165 -35 391 -38 498 -5 70 22 174 73 253 127 86 58 270 244 358 363 103 138 249 389 235 402 -2 3 -7 -4 -10 -14z"/>
<path d="M3216 3597 c3 -10 9 -15 12 -12 3 3 0 11 -7 18 -10 9 -11 8 -5 -6z"/>
<path d="M3365 3370 c46 -83 240 -277 350 -351 76 -51 174 -103 181 -96 3 2 -20 16 -51 31 -141 66 -307 206 -430 361 -54 67 -62 77 -50 55z"/>
<path d="M4750 3018 c-30 -17 -80 -39 -110 -49 -67 -22 -129 -48 -115 -49 18 0 169 58 230 89 33 17 67 31 76 31 10 0 43 -14 74 -30 32 -17 60 -29 62 -27 7 8 -116 67 -138 67 -13 0 -49 -15 -79 -32z"/>
<path d="M4982 2975 c7 -7 141 -55 153 -54 14 0 -127 58 -144 58 -8 1 -12 -1 -9 -4z"/>
<path d="M3923 2910 c73 -47 339 -52 535 -10 83 18 54 22 -34 5 -130 -26 -305 -31 -401 -11 -46 9 -91 19 -100 22 -17 5 -17 5 0 -6z"/>
</g>
</g>
  <g id="id12:id12" transform="matrix(1.25,0,0,1.25,0.0,0.0)"><g transform="translate(0.000000,400.000000) scale(0.040000,-0.040000)" fill="#986d64" stroke="none">
<path d="M4193 7203 c9 -2 25 -2 35 0 9 3 1 5 -18 5 -19 0 -27 -2 -17 -5z"/>
<path d="M4260 7196 c0 -2 7 -7 16 -10 8 -3 12 -2 9 4 -6 10 -25 14 -25 6z"/>
<path d="M4355 7130 c10 -11 20 -20 23 -20 3 0 -3 9 -13 20 -10 11 -20 20 -23 20 -3 0 3 -9 13 -20z"/>
<path d="M4485 7010 c33 -33 62 -60 64 -60 3 0 -21 27 -54 60 -33 33 -62 60 -64 60 -3 0 21 -27 54 -60z"/>
<path d="M4071 7044 c0 -11 3 -14 6 -6 3 7 2 16 -1 19 -3 4 -6 -2 -5 -13z"/>
<path d="M4080 7011 c0 -6 4 -13 10 -16 6 -3 7 1 4 9 -7 18 -14 21 -14 7z"/>
<path d="M4115 6960 c10 -11 20 -20 23 -20 3 0 -3 9 -13 20 -10 11 -20 20 -23 20 -3 0 3 -9 13 -20z"/>
<path d="M4180 6905 c13 -14 26 -25 28 -25 3 0 -5 11 -18 25 -13 14 -26 25 -28 25 -3 0 5 -11 18 -25z"/>
<path d="M4575 6910 c10 -11 20 -20 23 -20 3 0 -3 9 -13 20 -10 11 -20 20 -23 20 -3 0 3 -9 13 -20z"/>
<path d="M4670 6786 c0 -2 8 -10 18 -17 15 -13 16 -12 3 4 -13 16 -21 21 -21 13z"/>
<path d="M4355 6730 c10 -11 20 -20 23 -20 3 0 -3 9 -13 20 -10 11 -20 20 -23 20 -3 0 3 -9 13 -20z"/>
<path d="M4710 6730 c6 -11 13 -20 16 -20 2 0 0 9 -6 20 -6 11 -13 20 -16 20 -2 0 0 -9 6 -20z"/>
<path d="M4765 6650 c10 -11 20 -20 23 -20 3 0 -3 9 -13 20 -10 11 -20 20 -23 20 -3 0 3 -9 13 -20z"/>
<path d="M4420 6646 c0 -2 8 -10 18 -17 15 -13 16 -12 3 4 -13 16 -21 21 -21 13z"/>
<path d="M4840 6521 c0 -6 4 -13 10 -16 6 -3 7 1 4 9 -7 18 -14 21 -14 7z"/>
<path d="M4520 6500 c6 -11 13 -20 16 -20 2 0 0 9 -6 20 -6 11 -13 20 -16 20 -2 0 0 -9 6 -20z"/>
<path d="M4861 6485 c0 -5 8 -26 19 -45 11 -19 19 -30 19 -25 0 6 -8 26 -19 45 -11 19 -19 31 -19 25z"/>
<path d="M4906 6387 c3 -10 9 -15 12 -12 3 3 0 11 -7 18 -10 9 -11 8 -5 -6z"/>
<path d="M4926 6340 c4 -14 13 -38 20 -55 11 -24 13 -25 8 -5 -4 14 -13 39 -20 55 -11 24 -13 25 -8 5z"/>
<path d="M4620 6311 c0 -6 4 -13 10 -16 6 -3 7 1 4 9 -7 18 -14 21 -14 7z"/>
<path d="M5413 6263 c9 -2 25 -2 35 0 9 3 1 5 -18 5 -19 0 -27 -2 -17 -5z"/>
<path d="M5573 6263 c9 -2 23 -2 30 0 6 3 -1 5 -18 5 -16 0 -22 -2 -12 -5z"/>
<path d="M5255 6250 c-27 -7 -27 -8 -5 -8 14 0 39 4 55 8 27 7 27 8 5 8 -14 0 -38 -4 -55 -8z"/>
<path d="M5688 6253 c7 -3 16 -2 19 1 4 3 -2 6 -13 5 -11 0 -14 -3 -6 -6z"/>
<path d="M4960 6245 c0 -5 5 -17 10 -25 5 -8 10 -10 10 -5 0 6 -5 17 -10 25 -5 8 -10 11 -10 5z"/>
<path d="M5175 6230 c-13 -5 -14 -9 -5 -9 8 0 24 4 35 9 13 5 14 9 5 9 -8 0 -24 -4 -35 -9z"/>
<path d="M4671 6194 c0 -11 3 -14 6 -6 3 7 2 16 -1 19 -3 4 -6 -2 -5 -13z"/>
<path d="M4980 6190 c0 -5 5 -10 11 -10 5 0 7 5 4 10 -3 6 -8 10 -11 10 -2 0 -4 -4 -4 -10z"/>
<path d="M5028 6193 c7 -3 16 -2 19 1 4 3 -2 6 -13 5 -11 0 -14 -3 -6 -6z"/>
<path d="M6530 3739 c-24 -58 -162 -279 -229 -369 -82 -109 -268 -295 -348 -348 -81 -55 -183 -106 -258 -129 -81 -25 -345 -25 -455 0 -122 27 -128 28 -67 7 111 -38 347 -52 473 -29 113 21 269 102 389 202 131 110 289 297 389 461 99 163 128 216 124 227 -2 7 -10 -3 -18 -22z"/>
<path d="M3379 3335 c5 -12 38 -52 73 -91 165 -184 333 -301 523 -365 64 -22 359 -19 460 5 44 10 87 22 95 28 10 6 6 7 -15 2 -16 -3 -57 -13 -90 -20 -99 -23 -328 -29 -412 -11 -87 19 -204 72 -298 135 -69 46 -250 218 -314 297 -18 22 -28 31 -22 20z"/>
<path d="M4748 3005 c-38 -18 -97 -44 -133 -56 -36 -12 -63 -24 -61 -26 8 -8 77 17 179 65 l97 46 36 -18 c45 -21 57 -14 13 8 -44 22 -54 21 -131 -19z"/>
<path d="M4937 2985 c30 -21 153 -67 166 -62 6 2 -13 11 -43 21 -30 10 -73 27 -94 37 -48 23 -58 24 -29 4z"/>
</g>
</g>
  <g id="id13:id13" transform="matrix(1.25,0,0,1.25,0.0,0.0)"><g transform="translate(0.000000,400.000000) scale(0.040000,-0.040000)" fill="#e53a35" stroke="none">
<path d="M4195 6025 c-294 -42 -550 -170 -761 -380 -200 -200 -322 -424 -375 -696 -92 -465 94 -1151 465 -1716 115 -176 295 -299 496 -339 148 -29 433 -2 563 55 27 12 54 21 61 21 7 0 47 18 89 40 41 22 85 40 98 40 12 0 51 -15 88 -34 216 -111 514 -162 721 -122 434 82 872 645 1108 1421 58 189 84 351 89 555 5 172 3 194 -22 313 -38 184 -93 315 -204 487 -33 52 -101 136 -101 125 0 -2 -31 15 -68 39 -194 126 -468 206 -707 206 -114 0 -220 -16 -385 -56 -105 -26 -131 -28 -295 -28 -162 0 -191 3 -295 28 -235 57 -379 68 -565 41z"/>
</g>
</g>
  <g id="id14:id14" transform="matrix(1.25,0,0,1.25,0.0,0.0)"><g transform="translate(0.000000,400.000000) scale(0.040000,-0.040000)" fill="#d32e2e" stroke="none">
<path d="M3933 6234 c-94 -16 -258 -67 -356 -113 -176 -81 -410 -274 -492 -404 -10 -18 -22 -34 -26 -37 -3 -3 -26 -39 -51 -80 -184 -305 -231 -654 -144 -1070 31 -151 70 -291 109 -395 52 -138 69 -182 97 -242 46 -100 120 -244 142 -275 10 -14 18 -29 18 -32 0 -6 48 -77 159 -238 19 -27 77 -93 129 -146 52 -53 88 -88 79 -77 -8 11 -43 63 -78 115 -297 452 -481 1001 -482 1440 -1 382 128 697 397 965 216 215 489 348 791 384 179 22 304 11 535 -45 104 -25 133 -28 295 -28 164 0 190 2 295 28 165 40 271 56 385 56 239 0 513 -80 707 -206 37 -24 68 -40 68 -35 0 19 -168 164 -260 225 -165 110 -336 180 -524 212 -70 13 -132 15 -271 11 -159 -5 -193 -9 -290 -35 -199 -55 -465 -60 -640 -12 -44 12 -116 28 -160 36 -100 17 -322 17 -432 -2z"/>
</g>
</g>
  <g id="id15:id15" transform="matrix(1.25,0,0,1.25,0.0,0.0)"><g transform="translate(0.000000,400.000000) scale(0.040000,-0.040000)" fill="#6e4d42" stroke="none">
<path d="M4148 7189 c-34 -13 -70 -69 -71 -113 -1 -55 21 -91 101 -163 141 -125 202 -195 313 -358 57 -84 189 -337 189 -363 0 -8 24 -12 73 -13 93 -1 221 2 225 6 14 13 -172 429 -202 454 -8 7 -30 36 -48 64 -104 165 -316 398 -422 466 -53 33 -104 39 -158 20z"/>
</g>
</g>
</svg>
